<?xml version="1.0" encoding="UTF-8"?>
<svg id="Layer_1" xmlns="http://www.w3.org/2000/svg" version="1.1" viewBox="0 0 266.4 180">
  <!-- Generator: Adobe Illustrator 30.7.0, SVG Export Plug-In . SVG Version: 2.1.4 Build 114)  -->
  <defs>
    <style>
      .st0 {
        fill: #232f4c;
      }

      .st1 {
        fill: #ba8c42;
      }
    </style>
  </defs>
  <path class="st0" d="M35.2,106.25v-.31c.81-.04,1.48-.21,2.03-.51.54-.3.91-.66,1.1-1.06.11-.25.2-.56.25-.93.06-.37.09-.75.11-1.13.04-1.26.06-2.45.06-3.6v-11.61c-.62,1.41-1.19,2.7-1.71,3.88-.52,1.18-1.03,2.33-1.54,3.45-.51,1.12-1.02,2.27-1.54,3.44-.52,1.17-1.09,2.46-1.71,3.87-.09.19-.23.49-.39.9s-.34.83-.51,1.26c-.17.43-.33.82-.48,1.17s-.24.58-.28.7h-.17c-.6-1.41-1.2-2.81-1.79-4.19-.59-1.39-1.17-2.73-1.73-4.01-.56-1.28-1.09-2.49-1.58-3.61-.49-1.12-.93-2.12-1.33-3s-.72-1.61-.97-2.2c-.25-.59-.43-.99-.52-1.2,0,1.26,0,2.36-.01,3.32,0,.96-.02,1.91-.03,2.85,0,.94-.01,1.94-.01,2.98v3.65c0,.89.03,1.67.08,2.33.06.66.2,1.21.42,1.65.23.45.57.8,1.03,1.06.46.26,1.09.44,1.9.56v.29h-7.36v-.29c.66-.13,1.19-.33,1.61-.58.41-.26.74-.61.99-1.07s.42-1.02.54-1.7c.11-.67.18-1.5.2-2.47.04-.82.07-1.78.08-2.9s.03-2.31.03-3.58v-3.6c0-.38,0-.85-.03-1.4-.02-.53-.13-.97-.34-1.3s-.45-.59-.73-.78c-.28-.19-.58-.33-.9-.41-.32-.09-.59-.15-.82-.19v-.29h6.01l6.74,15.52c.83-1.81,1.63-3.6,2.42-5.39.79-1.79,1.5-3.4,2.13-4.85.63-1.45,1.15-2.65,1.55-3.61.4-.96.63-1.52.69-1.67h6.01v.29c-.77.02-1.36.18-1.76.49s-.68.67-.83,1.08c-.11.32-.19.83-.23,1.51-.04.68-.07,1.36-.08,2.03-.02.91-.03,1.8-.03,2.65v5.68c0,1.01,0,2.07.03,3.2,0,.36.02.73.07,1.1.05.37.13.66.24.87.02.04.09.13.21.27s.3.29.52.46.51.3.85.43c.34.12.73.2,1.18.21v.29h-9.67Z"/>
  <path class="st0" d="M72.39,106.25v-.29c.06,0,.19-.02.41-.06s.44-.1.68-.2.44-.23.62-.4c.18-.17.27-.39.27-.66,0-.17-.05-.45-.16-.84-.1-.39-.25-.87-.44-1.43-.19-.56-.4-1.18-.65-1.87-.24-.68-.51-1.4-.79-2.14h-7.5c-.28.72-.55,1.41-.82,2.07-.26.66-.53,1.32-.79,1.98-.39,1.03-.59,1.75-.59,2.17,0,.25.07.45.23.61.15.16.34.29.58.4.24.1.49.18.76.23s.53.09.78.13v.29h-6.01v-.31c.49-.06.91-.19,1.25-.4.35-.21.55-.35.61-.43.13-.13.35-.45.65-.94.3-.49.67-1.23,1.1-2.2.39-.89.84-1.91,1.33-3.05.49-1.14.99-2.32,1.51-3.52.52-1.21,1.03-2.43,1.54-3.65.51-1.23.99-2.37,1.44-3.44l-.28-.63c.34-.15.64-.33.92-.54.27-.21.51-.43.72-.66.21-.23.38-.45.52-.66.14-.21.25-.38.32-.51h.23c.58,1.58,1.14,3.08,1.66,4.49.53,1.42,1.03,2.78,1.51,4.09.48,1.31.94,2.58,1.4,3.81s.9,2.44,1.35,3.64c.21.59.4,1.08.58,1.47.18.39.38.83.61,1.33.04.08.12.21.25.4.13.19.3.39.52.58.22.2.48.38.8.53.32.15.7.24,1.13.26v.34h-8.23ZM68.69,88.96c-.11.25-.28.64-.49,1.17-.22.53-.48,1.18-.8,1.94s-.67,1.62-1.06,2.58c-.38.96-.8,2-1.25,3.12h7.02c-.32-.86-.64-1.71-.97-2.57-.33-.86-.65-1.68-.96-2.47-.31-.79-.59-1.51-.85-2.17s-.46-1.19-.63-1.61Z"/>
  <path class="st0" d="M109,103.09c-.37.72-.87,1.34-1.52,1.85s-1.42.89-2.33,1.14c-.9.25-1.89.37-2.96.37-.92,0-1.71-.06-2.37-.17-.66-.11-1.2-.25-1.64-.41-.43-.16-.76-.31-.97-.44-.22-.13-.35-.2-.41-.2s-.18.11-.37.34c-.19.23-.36.45-.51.66h-.25l-.08-5.68h.28c.17.51.38,1.01.65,1.5.26.49.55.94.86,1.37.31.43.64.8.99,1.13.35.32.68.57,1,.74.32.17.74.34,1.27.51s1.03.26,1.52.26c1.39,0,2.52-.39,3.38-1.16s1.3-1.81,1.3-3.12c0-.53-.08-1-.25-1.4-.17-.4-.4-.75-.69-1.04-.29-.29-.63-.55-1.03-.76-.39-.21-.82-.4-1.27-.57-.45-.17-.85-.31-1.18-.43-.34-.11-.65-.22-.94-.33-.29-.1-.59-.21-.9-.31-.31-.1-.68-.24-1.11-.41-.49-.19-.96-.45-1.41-.78-.45-.33-.85-.72-1.18-1.17-.34-.45-.61-.94-.82-1.48s-.31-1.12-.31-1.73c0-1.03.19-1.91.56-2.65.37-.74.87-1.36,1.49-1.85s1.35-.86,2.17-1.1,1.68-.36,2.58-.36c.85,0,1.57.07,2.17.21.6.14,1.09.3,1.48.47.38.17.68.33.87.47s.31.21.32.21c.06,0,.17-.11.35-.34.18-.23.34-.46.49-.69h.31v5.28h-.31c-.23-.63-.52-1.25-.87-1.87-.36-.62-.77-1.17-1.24-1.66-.47-.48-1.01-.88-1.61-1.18-.6-.3-1.27-.46-2-.46-.58,0-1.13.09-1.65.26-.52.17-.97.43-1.35.77-.39.34-.69.77-.9,1.27-.22.5-.32,1.08-.32,1.73,0,1.01.3,1.82.9,2.43.6.61,1.38,1.09,2.33,1.46.38.15.73.29,1.05.4.33.11.65.22.97.33.32.1.64.21.97.33.33.11.67.24,1.03.37,1.27.48,2.26,1.17,2.97,2.07.7.9,1.05,2.03,1.05,3.38,0,.91-.18,1.73-.55,2.45Z"/>
  <path class="st0" d="M140.16,103.09c-.37.72-.87,1.34-1.52,1.85s-1.42.89-2.33,1.14c-.9.25-1.89.37-2.96.37-.92,0-1.71-.06-2.37-.17-.66-.11-1.2-.25-1.64-.41-.43-.16-.76-.31-.97-.44-.22-.13-.35-.2-.41-.2s-.18.11-.37.34c-.19.23-.36.45-.51.66h-.25l-.08-5.68h.28c.17.51.38,1.01.65,1.5.26.49.55.94.86,1.37.31.43.64.8.99,1.13.35.32.68.57,1,.74.32.17.74.34,1.27.51s1.03.26,1.52.26c1.39,0,2.52-.39,3.38-1.16s1.3-1.81,1.3-3.12c0-.53-.08-1-.25-1.4-.17-.4-.4-.75-.69-1.04-.29-.29-.63-.55-1.03-.76-.39-.21-.82-.4-1.27-.57-.45-.17-.85-.31-1.18-.43-.34-.11-.65-.22-.94-.33-.29-.1-.59-.21-.9-.31-.31-.1-.68-.24-1.11-.41-.49-.19-.96-.45-1.41-.78-.45-.33-.85-.72-1.18-1.17-.34-.45-.61-.94-.82-1.48s-.31-1.12-.31-1.73c0-1.03.19-1.91.56-2.65.37-.74.87-1.36,1.49-1.85s1.35-.86,2.17-1.1,1.68-.36,2.58-.36c.85,0,1.57.07,2.17.21.6.14,1.09.3,1.48.47.38.17.68.33.87.47s.31.21.32.21c.06,0,.17-.11.35-.34.18-.23.34-.46.49-.69h.31v5.28h-.31c-.23-.63-.52-1.25-.87-1.87-.36-.62-.77-1.17-1.24-1.66-.47-.48-1.01-.88-1.61-1.18-.6-.3-1.27-.46-2-.46-.58,0-1.13.09-1.65.26-.52.17-.97.43-1.35.77-.39.34-.69.77-.9,1.27-.22.5-.32,1.08-.32,1.73,0,1.01.3,1.82.9,2.43.6.61,1.38,1.09,2.33,1.46.38.15.73.29,1.05.4.33.11.65.22.97.33.32.1.64.21.97.33.33.11.67.24,1.03.37,1.27.48,2.26,1.17,2.97,2.07.7.9,1.05,2.03,1.05,3.38,0,.91-.18,1.73-.55,2.45Z"/>
  <path class="st0" d="M168.65,106.25v-.29c.06,0,.19-.02.41-.06s.44-.1.68-.2.44-.23.62-.4c.18-.17.27-.39.27-.66,0-.17-.05-.45-.16-.84-.1-.39-.25-.87-.44-1.43-.19-.56-.4-1.18-.65-1.87-.24-.68-.51-1.4-.79-2.14h-7.5c-.28.72-.55,1.41-.82,2.07-.26.66-.53,1.32-.79,1.98-.39,1.03-.59,1.75-.59,2.17,0,.25.07.45.23.61.15.16.34.29.58.4.24.1.49.18.76.23s.53.09.78.13v.29h-6.01v-.31c.49-.06.91-.19,1.25-.4.35-.21.55-.35.61-.43.13-.13.35-.45.65-.94.3-.49.67-1.23,1.1-2.2.39-.89.84-1.91,1.33-3.05.49-1.14.99-2.32,1.51-3.52.52-1.21,1.03-2.43,1.54-3.65.51-1.23.99-2.37,1.44-3.44l-.28-.63c.34-.15.64-.33.92-.54.27-.21.51-.43.72-.66.21-.23.38-.45.52-.66.14-.21.25-.38.32-.51h.23c.58,1.58,1.14,3.08,1.66,4.49.53,1.42,1.03,2.78,1.51,4.09.48,1.31.94,2.58,1.4,3.81s.9,2.44,1.35,3.64c.21.59.4,1.08.58,1.47.18.39.38.83.61,1.33.04.08.12.21.25.4.13.19.3.39.52.58.22.2.48.38.8.53.32.15.7.24,1.13.26v.34h-8.23ZM164.96,88.96c-.11.25-.28.64-.49,1.17-.22.53-.48,1.18-.8,1.94s-.67,1.62-1.06,2.58c-.38.96-.8,2-1.25,3.12h7.02c-.32-.86-.64-1.71-.97-2.57-.33-.86-.65-1.68-.96-2.47-.31-.79-.59-1.51-.85-2.17s-.46-1.19-.63-1.61Z"/>
  <path class="st0" d="M211.34,96.99c-.38.12-.65.32-.82.58-.13.21-.21.53-.23.97-.02.44-.03.88-.03,1.31v4.17c-.13.11-.46.3-.97.57-.52.27-1.15.54-1.89.81-.74.28-1.56.51-2.47.7s-1.8.29-2.71.29c-1.79,0-3.38-.23-4.79-.7-1.41-.47-2.6-1.15-3.57-2.05-.97-.9-1.71-2.01-2.23-3.31-.52-1.3-.78-2.76-.78-4.38,0-.48.05-1.02.14-1.64.09-.62.26-1.27.49-1.95.24-.69.56-1.38.99-2.08.42-.7.95-1.37,1.59-2,.9-.89,2.01-1.61,3.33-2.15,1.32-.54,2.91-.81,4.79-.81,1.13,0,2.12.1,2.99.3.86.2,1.59.42,2.19.66.59.24,1.05.46,1.37.66.32.2.5.3.54.3s.14-.11.31-.34c.17-.23.38-.5.62-.83h.25v6.22h-.34c-.21-.86-.52-1.66-.93-2.43-.41-.76-.86-1.39-1.33-1.88-.6-.65-1.37-1.17-2.31-1.57-.94-.4-1.99-.6-3.16-.6-1.24,0-2.36.28-3.36.84-1,.56-1.84,1.31-2.54,2.25-.7.94-1.23,2.03-1.61,3.25-.38,1.23-.56,2.52-.56,3.87,0,1.48.18,2.84.54,4.07.36,1.23.87,2.28,1.55,3.15s1.5,1.55,2.48,2.04c.98.48,2.1.73,3.36.73.9,0,1.74-.16,2.52-.47s1.4-.82,1.85-1.53c.15-.25.26-.68.34-1.31.08-.63.11-1.27.11-1.94s-.03-1.27-.1-1.8c-.07-.53-.26-.97-.58-1.31-.43-.49-1.19-.79-2.28-.88v-.29h8.26v.29c-.32.04-.67.12-1.04.24Z"/>
  <path class="st0" d="M245.85,106.25h-17.26v-.29c.47-.08.91-.2,1.31-.37s.74-.41,1-.71c.09-.11.17-.28.23-.5.06-.22.11-.47.16-.76.05-.29.08-.58.1-.9s.03-.62.03-.93c0-.27,0-.63.01-1.08,0-.46.02-.96.03-1.5s.01-1.1.01-1.67v-7.22c0-.34,0-.69-.01-1.06s-.03-.7-.06-1.03c-.03-.32-.08-.61-.14-.87-.07-.26-.16-.44-.27-.56-.28-.3-.58-.5-.9-.58s-.73-.17-1.24-.24v-.29h15.56l1.92,4.71-.28.14c-1.52-1.92-2.95-3.21-4.29-3.88-.32-.15-.91-.29-1.78-.4-.87-.11-1.92-.17-3.16-.17-.39,0-.8.01-1.23.04-.42.03-.73.06-.92.1-.04.3-.07.93-.1,1.88-.03.95-.04,2.05-.04,3.31v1.83c0,.49,0,.9.01,1.21,0,.31.01.56.01.73v.31h.56c.28,0,.61,0,.97-.03.37-.02.73-.04,1.1-.07.37-.03.67-.07.92-.13.56-.13,1.03-.31,1.41-.54.38-.23.68-.5.92-.83.23-.32.42-.7.56-1.13.14-.43.27-.91.38-1.44h.34v8.99h-.34c-.15-.61-.38-1.24-.69-1.88-.31-.65-.63-1.13-.97-1.46-.3-.27-.66-.48-1.09-.66-.42-.17-.92-.28-1.48-.31-.28-.02-.52-.03-.71-.04-.19,0-.38-.01-.56-.01h-1.3c-.04.27-.06.66-.06,1.17v3.42c0,.3,0,.59.01.87,0,.28.01.51.01.7.02.61.05,1.18.1,1.73.05.54.16.95.32,1.21.17.27.57.46,1.21.57.64.11,1.33.17,2.09.17.32,0,.73,0,1.23-.03.5-.02,1.02-.07,1.57-.14.6-.08,1.16-.22,1.66-.44.51-.22,1-.53,1.47-.93s.93-.89,1.37-1.47c.44-.58.9-1.28,1.37-2.1l.31.09-1.41,5.45Z"/>
  <path class="st0" d="M113.1,117.78c-.33.21-.52.35-.58.43-.06.06-.14.15-.25.29-.11.13-.25.32-.4.56-.15.24-.31.54-.48.91-.17.37-.35.83-.54,1.38-.3.93-.65,1.96-1.04,3.1-.4,1.13-.79,2.3-1.2,3.5-.4,1.2-.81,2.4-1.23,3.61-.41,1.21-.8,2.35-1.16,3.44l-1.18,2.74h-.28c-.51-1.37-.98-2.68-1.42-3.94s-.86-2.46-1.27-3.62c-.4-1.16-.79-2.29-1.17-3.38-.38-1.09-.76-2.17-1.16-3.24-.3.88-.62,1.79-.96,2.75-.34.96-.68,1.94-1.01,2.92-.34.99-.68,1.96-1.02,2.92-.34.96-.67,1.89-.99,2.78l-1.24,2.8h-.34c-.58-1.54-1.13-3.01-1.65-4.39-.52-1.39-1.02-2.73-1.49-4.01-.48-1.28-.95-2.53-1.4-3.74-.45-1.21-.9-2.41-1.35-3.61-.13-.36-.25-.68-.35-.94-.1-.27-.2-.51-.28-.74-.08-.23-.17-.45-.27-.66-.09-.21-.2-.43-.31-.66-.06-.11-.14-.26-.24-.43-.1-.17-.25-.34-.44-.5-.19-.16-.41-.3-.68-.43-.26-.12-.6-.19-1.01-.21v-.31h7.95v.29c-.09,0-.25.02-.48.06-.23.04-.46.1-.71.2-.24.1-.46.24-.63.43-.18.19-.27.45-.27.77,0,.17.1.57.3,1.18s.46,1.37.78,2.25c.32.88.67,1.85,1.06,2.9.38,1.05.77,2.08,1.16,3.1.38,1.02.75,1.97,1.08,2.85.34.88.61,1.61.82,2.18.06-.15.2-.55.42-1.18.23-.64.51-1.44.85-2.4.34-.96.71-2.04,1.13-3.25.41-1.21.83-2.47,1.24-3.78-.28-.76-.54-1.43-.76-2.01-.23-.58-.47-1.15-.73-1.7-.08-.15-.17-.31-.3-.49-.12-.17-.29-.34-.51-.5s-.48-.29-.8-.4-.7-.17-1.16-.19v-.31h8.83v.29c-.11.02-.32.05-.61.09-.29.04-.58.11-.87.21-.29.1-.55.25-.79.44-.24.19-.35.43-.35.71,0,.11.1.5.31,1.16s.47,1.46.79,2.4c.32.94.68,1.96,1.07,3.07.39,1.1.77,2.16,1.13,3.18.36,1.02.68,1.93.97,2.74.29.81.5,1.39.63,1.75.06-.13.15-.41.3-.84.14-.43.32-.95.54-1.57s.45-1.31.71-2.07c.25-.76.51-1.54.76-2.33s.51-1.58.76-2.37c.25-.79.48-1.53.69-2.21.26-.87.41-1.51.45-1.91.04-.4.06-.69.06-.88,0-.29-.08-.52-.25-.7-.17-.18-.38-.33-.62-.46-.24-.12-.51-.22-.79-.29-.28-.07-.54-.11-.76-.13v-.29h6.2v.29c-.47.06-.87.19-1.2.4Z"/>
  <path class="st0" d="M140.07,137.64v-.29c.06,0,.19-.02.41-.06s.44-.1.68-.2.44-.23.62-.4c.18-.17.27-.39.27-.66,0-.17-.05-.45-.16-.84-.1-.39-.25-.87-.44-1.43-.19-.56-.4-1.18-.65-1.87-.24-.68-.51-1.4-.79-2.14h-7.5c-.28.72-.55,1.41-.82,2.07-.26.66-.53,1.32-.79,1.98-.39,1.03-.59,1.75-.59,2.17,0,.25.07.45.23.61.15.16.34.29.58.4.24.1.49.18.76.23s.53.09.78.13v.29h-6.01v-.31c.49-.06.91-.19,1.25-.4.35-.21.55-.35.61-.43.13-.13.35-.45.65-.94.3-.49.67-1.23,1.1-2.2.39-.89.84-1.91,1.33-3.05.49-1.14.99-2.32,1.51-3.52.52-1.21,1.03-2.43,1.54-3.65.51-1.23.99-2.37,1.44-3.44l-.28-.63c.34-.15.64-.33.92-.54.27-.21.51-.43.72-.66.21-.23.38-.45.52-.66.14-.21.25-.38.32-.51h.23c.58,1.58,1.14,3.08,1.66,4.49.53,1.42,1.03,2.78,1.51,4.09.48,1.31.94,2.58,1.4,3.81s.9,2.44,1.35,3.64c.21.59.4,1.08.58,1.47.18.39.38.83.61,1.33.04.08.12.21.25.4.13.19.3.39.52.58.22.2.48.38.8.53.32.15.7.24,1.13.26v.34h-8.23ZM136.38,120.35c-.11.25-.28.64-.49,1.17-.22.53-.48,1.18-.8,1.94s-.67,1.62-1.06,2.58c-.38.96-.8,2-1.25,3.12h7.02c-.32-.86-.64-1.71-.97-2.57-.33-.86-.65-1.68-.96-2.47-.31-.79-.59-1.51-.85-2.17s-.46-1.19-.63-1.61Z"/>
  <path class="st0" d="M179.38,117.78c-.38.19-.72.44-1.04.74-.32.3-.62.67-.92,1.08-.29.42-.61.89-.94,1.43-.23.36-.54.85-.95,1.47s-.82,1.26-1.24,1.93c-.42.67-.83,1.3-1.23,1.91s-.71,1.08-.93,1.43v5.74c0,.55.01,1.09.04,1.61.03.52.12.89.27,1.1.28.42.65.69,1.1.83.45.13.88.24,1.3.31v.29h-8.68v-.29c.49-.06.92-.15,1.28-.27.37-.12.76-.42,1.17-.9.09-.1.16-.26.21-.49.05-.23.08-.48.11-.77.03-.29.05-.59.06-.91,0-.32.01-.64.01-.94.02-.53.03-1.17.04-1.9,0-.73.01-1.62.01-2.67-.04-.06-.15-.24-.34-.54-.19-.3-.42-.68-.69-1.13-.27-.45-.57-.95-.9-1.5-.33-.55-.65-1.09-.97-1.61-.32-.52-.62-1.01-.9-1.47s-.52-.83-.71-1.11c-.36-.55-.68-1.06-.97-1.51s-.59-.85-.89-1.17c-.3-.32-.6-.58-.89-.77-.29-.19-.62-.29-1-.31v-.29h8.54v.29c-.28.02-.56.05-.85.09-.28.04-.55.1-.79.19-.24.09-.44.2-.59.34-.15.14-.23.34-.23.58s.14.62.41,1.13c.27.5.56,1.01.86,1.53.21.34.45.76.73,1.24.28.49.59,1,.93,1.54.34.54.68,1.1,1.03,1.67.35.57.67,1.11.97,1.63.24-.36.54-.82.9-1.38.36-.56.72-1.13,1.09-1.71.37-.58.71-1.14,1.04-1.67s.58-.95.75-1.26c.09-.15.2-.33.31-.53.11-.2.22-.41.32-.63s.19-.44.27-.67c.08-.23.11-.44.11-.63,0-.3-.08-.54-.23-.71-.15-.17-.34-.3-.58-.4s-.49-.17-.78-.21c-.28-.05-.55-.09-.82-.13v-.29h6.51v.29c-.53.08-.98.21-1.35.4Z"/>
  <path class="st0" d="M46.87,154.57l1.6,5.57h-.09s2.27-5.67,2.27-5.67h.38l2.27,5.66h-.09s1.6-5.56,1.6-5.56h1.18l-2.44,7.98h-.39l-2.38-5.86h.11l-2.38,5.86h-.39l-2.44-7.98h1.18Z"/>
  <path class="st0" d="M68.72,154.57v1h-3.87l.13-.13v6.13l-.13-.13h3.98v1.02h-4.94v-7.88h4.83ZM68.07,157.97v1h-3.27v-1h3.27Z"/>
  <path class="st0" d="M77,154.57h1.09v7.01l-.13-.13h3.56v1h-4.52v-7.88Z"/>
  <path class="st0" d="M89.4,154.57h1.09v7.01l-.13-.13h3.56v1h-4.52v-7.88Z"/>
  <path class="st0" d="M101.8,154.47h.33l5.04,5.65-.09.03v-5.58h1.09v7.99h-.33l-5.03-5.64.09-.03v5.56h-1.1v-7.98Z"/>
  <path class="st0" d="M121.71,154.57v1h-3.87l.13-.13v6.13l-.13-.13h3.98v1.02h-4.94v-7.88h4.83ZM121.07,157.97v1h-3.27v-1h3.27Z"/>
  <path class="st0" d="M133,155.67c-.28-.14-.57-.21-.87-.21-.21,0-.41.03-.58.08-.17.05-.32.12-.44.22-.12.09-.22.2-.28.33-.07.13-.1.27-.1.42,0,.2.05.37.14.51.09.14.22.26.38.37.16.11.35.22.57.32s.46.21.72.33c.32.14.61.28.87.42.26.14.5.3.69.47.2.18.35.38.46.61s.17.52.17.87c0,.28-.06.55-.17.82-.11.26-.28.49-.5.69s-.49.36-.82.47c-.33.12-.71.18-1.14.18-.28,0-.55-.03-.82-.1-.26-.06-.51-.16-.74-.29-.23-.13-.44-.29-.62-.48-.19-.19-.35-.41-.48-.65l.92-.63c.2.38.45.66.76.84.31.18.65.27,1.02.27.24,0,.45-.03.63-.09.18-.06.34-.15.47-.25.13-.1.23-.21.3-.34.07-.13.11-.26.11-.39,0-.2-.04-.37-.13-.51-.08-.14-.2-.27-.35-.38-.15-.11-.33-.22-.55-.31s-.45-.2-.71-.32c-.26-.13-.53-.25-.8-.37-.27-.12-.51-.27-.72-.45-.21-.17-.39-.39-.52-.64s-.2-.56-.2-.93c0-.29.06-.56.19-.82s.3-.48.52-.67c.22-.19.49-.34.8-.45.31-.11.65-.17,1.01-.17.22,0,.45.02.68.07.23.05.46.13.67.23.22.11.42.25.61.42s.35.38.48.63l-.85.59c-.21-.33-.46-.57-.74-.71Z"/>
  <path class="st0" d="M145.91,155.67c-.28-.14-.57-.21-.87-.21-.21,0-.41.03-.58.08-.17.05-.32.12-.44.22-.12.09-.22.2-.28.33-.07.13-.1.27-.1.42,0,.2.05.37.14.51.09.14.22.26.38.37.16.11.35.22.57.32s.46.21.72.33c.32.14.61.28.87.42.26.14.5.3.69.47.2.18.35.38.46.61s.17.52.17.87c0,.28-.06.55-.17.82-.11.26-.28.49-.5.69s-.49.36-.82.47c-.33.12-.71.18-1.14.18-.28,0-.55-.03-.82-.1-.26-.06-.51-.16-.74-.29-.23-.13-.44-.29-.62-.48-.19-.19-.35-.41-.48-.65l.92-.63c.2.38.45.66.76.84.31.18.65.27,1.02.27.24,0,.45-.03.63-.09.18-.06.34-.15.47-.25.13-.1.23-.21.3-.34.07-.13.11-.26.11-.39,0-.2-.04-.37-.13-.51-.08-.14-.2-.27-.35-.38-.15-.11-.33-.22-.55-.31s-.45-.2-.71-.32c-.26-.13-.53-.25-.8-.37-.27-.12-.51-.27-.72-.45-.21-.17-.39-.39-.52-.64s-.2-.56-.2-.93c0-.29.06-.56.19-.82s.3-.48.52-.67c.22-.19.49-.34.8-.45.31-.11.65-.17,1.01-.17.22,0,.45.02.68.07.23.05.46.13.67.23.22.11.42.25.61.42s.35.38.48.63l-.85.59c-.21-.33-.46-.57-.74-.71Z"/>
  <path class="st0" d="M170.9,159.88c-.15.53-.39,1-.72,1.4s-.72.72-1.2.95-1,.35-1.58.35c-.36,0-.71-.05-1.04-.15s-.63-.24-.89-.43c-.26-.19-.46-.41-.61-.69-.15-.27-.23-.58-.23-.91,0-.27.05-.52.15-.74.1-.23.25-.44.44-.64.19-.2.42-.39.69-.57.27-.18.57-.37.91-.55l.73.7c-.26.14-.5.28-.71.41-.22.13-.41.26-.57.4-.16.14-.29.28-.38.44-.09.15-.14.32-.14.51,0,.2.05.37.15.52s.23.27.39.36c.16.1.34.17.54.22.2.05.4.07.6.07.43,0,.82-.09,1.16-.28.34-.19.62-.44.84-.75.22-.31.38-.67.48-1.07.1-.4.13-.81.08-1.23h1.06c.06.59.01,1.15-.14,1.68ZM166.02,157.82c-.12-.16-.23-.31-.32-.47-.09-.16-.16-.32-.2-.48-.05-.16-.07-.34-.07-.52,0-.24.05-.47.14-.7.1-.23.23-.44.41-.61.18-.18.4-.32.66-.43s.54-.16.86-.16.6.05.86.16.47.25.65.42c.18.17.32.37.41.6.1.22.14.45.14.69,0,.22-.04.43-.12.61-.08.18-.19.36-.35.53s-.36.34-.61.52c-.25.17-.54.36-.89.56l-.75-.68c.28-.16.52-.31.73-.44s.38-.25.52-.37c.14-.12.24-.24.31-.35.07-.12.1-.24.1-.37,0-.12-.03-.23-.08-.34s-.12-.2-.21-.29c-.09-.09-.19-.15-.32-.2s-.26-.07-.42-.07-.3.02-.42.07-.24.11-.33.2-.16.18-.21.29c-.05.11-.08.23-.08.36,0,.14.02.27.06.39.04.12.1.23.18.33s.17.22.28.33c.11.12.23.24.36.39l4.34,4.68h-1.38l-3.84-4.14c-.16-.17-.31-.33-.43-.49Z"/>
  <path class="st0" d="M194.7,161.55c-.22.21-.47.39-.75.55s-.57.28-.88.36c-.32.09-.65.13-1.01.13-.56,0-1.08-.1-1.57-.31-.49-.21-.91-.49-1.27-.85-.36-.36-.65-.79-.86-1.29-.21-.5-.31-1.04-.31-1.62s.1-1.12.31-1.62c.21-.5.49-.93.85-1.29.36-.36.78-.65,1.26-.85.48-.21.99-.31,1.54-.31.39,0,.75.04,1.07.13.32.09.62.21.89.35.27.15.51.31.72.51s.39.4.54.61l-.81.75c-.12-.18-.27-.34-.43-.5-.16-.15-.34-.29-.54-.4s-.42-.21-.66-.27c-.24-.07-.5-.1-.78-.1-.4,0-.78.08-1.12.23-.35.15-.65.36-.9.63-.25.27-.45.58-.6.95s-.21.76-.21,1.18.07.82.22,1.18c.15.36.35.68.61.95.26.27.56.48.92.63.35.15.74.23,1.15.23.57,0,1.05-.12,1.45-.37.4-.25.73-.57.99-.95l.79.69c-.17.25-.37.47-.59.68Z"/>
  <path class="st0" d="M208.18,154.75c.49.21.91.49,1.27.85.36.36.65.79.86,1.29.21.5.31,1.04.31,1.62s-.1,1.12-.31,1.62-.49.93-.86,1.29c-.36.36-.79.65-1.27.85-.49.21-1.01.31-1.58.31s-1.08-.1-1.57-.31c-.49-.21-.92-.49-1.28-.85s-.65-.79-.85-1.29c-.21-.5-.31-1.04-.31-1.62s.1-1.12.31-1.62c.21-.5.49-.93.85-1.29.36-.36.79-.65,1.28-.85s1.01-.31,1.57-.31,1.09.1,1.58.31ZM205.48,155.74c-.35.15-.66.36-.92.63-.26.27-.47.58-.62.95-.15.36-.23.76-.23,1.19s.08.83.23,1.19c.15.36.36.68.62.95.26.27.57.48.92.63s.72.22,1.12.22.77-.07,1.12-.22c.35-.15.66-.36.92-.63.26-.27.47-.58.62-.95.15-.36.23-.76.23-1.19s-.08-.83-.23-1.19c-.15-.36-.36-.68-.62-.95-.26-.27-.57-.48-.92-.63-.35-.15-.72-.22-1.12-.22s-.77.07-1.12.22Z"/>
  <path class="st0" d="M215.08,162.38c-.13-.13-.2-.3-.2-.49s.07-.36.2-.49c.13-.13.29-.2.47-.2s.34.06.47.2.2.29.2.49-.07.36-.2.49c-.13.13-.29.2-.47.2s-.34-.07-.47-.2Z"/>
  <g>
    <path class="st1" d="M125.49,60.84c.05.12-.07.26-.11.31-.14.15-.33.26-.5.37-.27.16-.55.29-.83.43-5.06,2.46-12.5.64-15.27-4.52-1.91-3.06-1.12-8.91-1.28-13.75.02-3.38-.04-7.38.03-10.58.06-1.57.39-2.56,1.03-2.79.68-.22,1.45.3,2,.8,2.77,2.75,1.93,5.82,2.1,11.33.24,4.7-.68,9.62,1.02,14.03.89,2.31,2.87,4.06,5.25,4.7,1.15.31,2.41.35,3.59.15.6-.1,1.18-.3,1.77-.44.23-.05.46-.1.69-.12.31-.03.45,0,.52.08Z"/>
    <path class="st1" d="M154.46,57.43c1.46-.43,2.94.61,3.29,1.92.41,1.52-.49,3.02-1.93,3.38s-2.9-.42-3.33-1.84.28-2.97,1.97-3.46Z"/>
    <path class="st1" d="M109.72,19.03c1.57-.39,2.99.55,3.35,1.96s-.53,2.93-1.97,3.33-2.86-.47-3.28-1.82c-.45-1.46.28-3.07,1.9-3.47Z"/>
    <path class="st1" d="M139.83,21.13c-.05-.12.07-.26.11-.31.14-.15.33-.26.5-.37.27-.16.55-.29.83-.43,5.06-2.46,12.5-.64,15.27,4.52,1.91,3.06,1.12,8.91,1.28,13.75-.02,3.38.04,7.38-.03,10.58-.06,1.57-.39,2.56-1.03,2.79-.68.22-1.45-.3-2-.8-2.77-2.75-1.93-5.82-2.1-11.33-.24-4.7.68-9.62-1.02-14.03-.89-2.31-2.87-4.06-5.25-4.7-1.15-.31-2.41-.35-3.59-.15-.6.1-1.18.3-1.77.44-.23.05-.46.1-.69.12-.31.03-.45,0-.52-.08Z"/>
    <path class="st1" d="M147.94,60.84c-.07-.08-.21-.11-.51-.08-.23.02-.46.07-.68.12-.58.14-1.15.34-1.74.44-1.15.2-2.4.16-3.53-.15-2.35-.64-4.29-2.39-5.17-4.7-.93-2.45-1.06-5.09-1.04-7.68.04-4.8.13-9.61.01-14.4-.05-1.97-.13-3.95-.35-5.91-.15-1.32-.29-2.75-.93-3.94-2.77-5.16-10.21-6.98-15.27-4.52-.28.14-.56.27-.83.43-.18.1-.36.22-.5.37-.04.04-.17.19-.11.31.07.08.21.11.52.08.23-.02.46-.07.69-.12.59-.14,1.17-.34,1.77-.44,1.17-.2,2.44-.16,3.59.15,2.39.64,4.36,2.39,5.25,4.7,1.13,2.94,1.14,5.64,1.08,8.74-.03,1.62-.05,3.69-.04,7.24.01,3.96.01,7.95.43,11.9.14,1.35.27,2.83.91,4.05,2.73,5.16,10.04,6.98,15.02,4.52.28-.14.55-.27.81-.43.17-.1.36-.22.49-.37.04-.04.17-.19.11-.31Z"/>
  </g>
</svg>