<svg xmlns="http://www.w3.org/2000/svg" id="uuid-e0d25b30-aa94-4998-a5ae-f595ad10bed7" data-name="Layer 2" viewBox="0 0 952 815.6"><g id="uuid-2af8eaf2-6edd-4506-be6e-92a3cd44a55e" data-name="Layer 1"><path d="m942.1,724.4h-60.3v-294.5h0v-52.8c0-33.6-27.3-60.9-60.9-60.9h-300.3v-178c0-11.2-9.1-20.3-20.3-20.3h-14.6v-18.8c15.9-4.3,27.7-18.9,27.7-36.2,0-5.3-1.6-14.9-15.3-37.4-7.1-11.6-14-21.1-14.3-21.5-1.9-2.5-4.8-4-7.9-4s-6.1,1.5-7.9,4c-.3.4-7.2,9.9-14.3,21.5-13.7,22.5-15.3,32.1-15.3,37.4,0,17.3,11.8,31.9,27.7,36.2v18.8h-14.6c-11.2,0-20.3,9.1-20.3,20.3v177.9H131c-33.6,0-60.9,27.3-60.9,60.9v347.3H9.8c-5.4,0-9.8,4.4-9.8,9.8,0,44.9,36.5,81.5,81.5,81.5h789c44.9,0,81.5-36.5,81.5-81.5,0-5.3-4.4-9.7-9.9-9.7ZM458.1,63c0-5.9,8.3-21.3,17.9-35.8,9.6,14.6,17.9,30.1,17.9,35.8,0,9.8-8,17.9-17.9,17.9s-17.9-8-17.9-17.9ZM89.8,444.1c18.6-6.6,76.7-23.8,119.2,1.7,25.6,15.4,53.6,21.9,80.5,21.9,36.3,0,70.6-11.9,94.3-30,29.5-22.5,79.1-41.8,147.7-6.5,67.3,34.6,132.2,37.1,187.8,7.4,47.4-25.4,104-26.5,142.9-3.2v152H89.8v-143.3Zm411.2-244.9l-50,32.1v-33.8l50.1-32.1v33.8h-.1Zm-50,55.4l50.1-32.1v33.8l-50.1,32.1v-33.8Zm0,57.2l50.1-32.1v36.5h-50.1v-4.4Zm.6-174.2h48.8c.3,0,.6.3.6.6v3.8l-50,32.1v-35.8c0-.4.2-.7.6-.7Zm-320.6,198.2h690c22.7,0,41.2,18.5,41.2,41.2v36c-43.9-21-102.8-18.3-152.2,8.2-49.6,26.6-108.2,24-169.5-7.5-32.3-16.6-64-23.7-94.2-21.1-26.8,2.4-51.9,12.3-74.4,29.4-35.9,27.4-99.9,38.5-152.7,6.8-45.6-27.3-103.3-14-129.3-5.6v-46.3c-.1-22.6,18.4-41.1,41.1-41.1Zm-41.2,271.2h772.4v117.4H89.8v-117.4Zm780.7,189H81.5c-30.7,0-56.3-22.6-61-52h911c-4.7,29.5-30.3,52-61,52Z" stroke-width="0"></path></g></svg>