<svg xmlns="http://www.w3.org/2000/svg" id="uuid-97aca206-6190-4329-a8f1-8833d532e72b" data-name="Layer 2" viewBox="0 0 75.54 80"><g id="uuid-cc9c5081-1612-4b67-b773-01c08028242c" data-name="Layer 1"><path d="m48.268,45.802c-.204,0-.408-.09-.547-.266-.235-.301-.183-.737.118-.972,2.058-1.612,3.903-4.197,5.2-7.276l.135-.325c.086-.211.266-.367.488-.415.142-.035,3.681-1.014,4.051-8.542.076-1.564-.685-3.031-1.989-3.823l-.055-.035c-.228-.145-.353-.412-.318-.682.014-.104,1.363-10.448-4.248-16.89-3.006-3.449-7.49-5.196-13.33-5.196s-10.33,1.75-13.337,5.203c-5.618,6.452-4.259,16.779-4.245,16.883.038.273-.09.54-.322.685l-.035.021c-1.318.803-2.079,2.269-2.003,3.833.37,7.528,3.909,8.504,4.058,8.542.214.055.398.211.481.415l.052.131c.09.222.183.439.284.658,1.256,2.768,2.982,5.141,4.854,6.684.294.242.336.678.093.976-.242.298-.678.336-.976.094-2.031-1.675-3.889-4.224-5.231-7.179-.083-.183-.163-.367-.239-.55-1.121-.45-4.401-2.38-4.76-9.701-.093-1.937.785-3.761,2.321-4.857-.218-2.135-.789-11.327,4.622-17.54C26.67,1.91,31.51,0,37.769,0s11.098,1.91,14.378,5.677c5.414,6.217,4.84,15.409,4.622,17.54,1.536,1.097,2.415,2.923,2.321,4.857-.36,7.324-3.64,9.254-4.76,9.701l-.021.049c-1.384,3.29-3.38,6.072-5.622,7.829-.118.1-.27.149-.419.149Z" stroke-width="0"></path><path d="m74.849,80c-.381,0-.692-.311-.692-.692v-4.996c0-5.615-3.761-10.649-9.144-12.243-.367-.107-.574-.495-.467-.862.107-.367.495-.574.861-.467,5.968,1.768,10.133,7.348,10.133,13.569v4.996c0,.388-.308.695-.692.695Z" stroke-width="0"></path><path d="m0,79.308c0,.381.311.692.692.692.384,0,.692-.308.692-.688v-4.996c0-5.615,3.761-10.649,9.144-12.243.367-.111.574-.495.467-.862-.111-.367-.495-.574-.861-.467-5.968,1.764-10.133,7.345-10.133,13.569v4.996Z" stroke-width="0"></path><path d="m53.337,80c-.381,0-.692-.311-.692-.692v-6.587c-1.664-2.1-3.373-4.28-4.674-6.712-1.069-2.003-1.311-3.591-1.54-5.124v-.003c-.343-2.272-.697-4.621-3.716-8.85-.827-1.159-.892-2.633-.169-3.844.671-1.121,1.851-1.723,3.086-1.564,1.766.225,2.458,1.816,3.015,3.095l.002.005.093.215c.892,2.038,1.661,2.917,3.515,4.525.287.249.318.689.069.976-.249.287-.688.318-.976.069-1.906-1.654-2.868-2.719-3.875-5.013l-.097-.221c-.564-1.301-1.003-2.162-1.924-2.28-.813-.107-1.422.398-1.723.903-.342.574-.495,1.484.107,2.328,3.212,4.498,3.608,7.127,3.957,9.448v.004c.222,1.484.433,2.885,1.391,4.677,1.272,2.382,2.99,4.552,4.655,6.653l.002.002.031.039c.097.121.149.273.149.429v6.829c.003.384-.308.692-.688.692Z" stroke-width="0"></path><path d="m61.494,79.308c0,.381.311.692.692.692s.692-.308.688-.688c0-6.574.026-10.127.044-12.491v-.209c.022-2.761.029-3.792-.037-6.252-.104-3.833-.491-7.037-4.411-10.445-1.536-1.335-3.709-1.854-7.438-2.39-.374-.055-.727.208-.782.585-.055.377.208.726.585.782,3.46.498,5.452.955,6.729,2.065,3.508,3.051,3.837,5.719,3.937,9.438.066,2.432.059,3.46.038,6.203v.199s-.001.011-.001.011c-.017,2.364-.044,5.924-.044,12.501Z" stroke-width="0"></path><path d="m22.315,80c-.381,0-.692-.311-.692-.692v-6.829c0-.156.052-.308.149-.429l.004-.004c1.673-2.112,3.401-4.294,4.684-6.69.958-1.792,1.169-3.193,1.391-4.677v-.004c.35-2.32.746-4.95,3.958-9.448.602-.844.45-1.754.107-2.328-.301-.505-.91-1.003-1.723-.903-.92.118-1.36.979-1.924,2.28l-.097.221c-1.007,2.297-1.969,3.359-3.875,5.013-.287.249-.727.218-.976-.069-.249-.287-.218-.726.069-.976,1.851-1.609,2.619-2.487,3.515-4.525l.093-.215.002-.005c.557-1.279,1.249-2.87,3.015-3.095,1.232-.159,2.415.443,3.086,1.564.723,1.211.661,2.681-.17,3.844-3.019,4.229-3.373,6.578-3.715,8.85v.003s-.002.009-.002.009c-.231,1.53-.471,3.116-1.538,5.115-1.301,2.436-3.006,4.612-4.674,6.712v6.587c.003.384-.308.692-.688.692Z" stroke-width="0"></path><path d="m12.773,79.308c0,.381.311.692.692.692s.692-.308.688-.696c0-6.572-.026-10.132-.043-12.496v-.009s-.002-.206-.002-.206c-.021-2.74-.028-3.768.038-6.203.1-3.722.429-6.386,3.937-9.438,1.277-1.111,3.269-1.567,6.729-2.066.377-.052.64-.405.585-.782-.052-.377-.408-.64-.782-.585-3.726.536-5.902,1.055-7.438,2.39-3.92,3.408-4.307,6.611-4.411,10.445-.066,2.46-.059,3.491-.038,6.252.017,2.359.045,5.93.045,12.7Z" stroke-width="0"></path><path d="m40.761,55.333c-.235,0-.464-.121-.595-.336-.879-1.467-1.36-3.328-1.36-5.245s.484-3.781,1.36-5.248c.197-.328.623-.432.948-.239.329.197.436.623.239.948-.751,1.256-1.166,2.865-1.166,4.536s.415,3.28,1.166,4.535c.197.329.09.754-.239.948-.111.069-.232.1-.353.1Z" stroke-width="0"></path><path d="m34.426,55.236c.114.066.235.097.356.097.235,0,.464-.121.595-.332.875-1.463,1.36-3.328,1.36-5.245s-.484-3.781-1.363-5.248c-.197-.329-.619-.436-.948-.239-.329.194-.436.619-.239.948.751,1.252,1.166,2.865,1.166,4.536s-.415,3.28-1.166,4.535c-.197.329-.09.751.239.948Z" stroke-width="0"></path></g></svg>