<svg xmlns="http://www.w3.org/2000/svg" id="Layer_2" viewBox="0 0 96.87 93.75"><g id="Layer_1-2"><path d="m92.05,35.35c-1.02-.04-2.14.04-3.24.47-1.1.44-2.16,1.26-2.75,2.63-3.04,8.59-6.07,17.18-9.1,25.77l-14.96,4.55c-.41.12-.75.42-.95.81l-10.89,21.91c-.51,1.04.24,2.24,1.39,2.25h21.87c.64,0,1.21-.39,1.45-.98l2.93-7.32,11.43-6.96c.39-.23.66-.62.73-1.07l6.88-39.65c.14-.76-.3-1.5-1.04-1.75,0,0-1.73-.59-3.76-.67h0Zm1.48,3.3l-6.51,37.53-11.27,6.86c-.29.18-.51.44-.63.75l-2.73,6.83h-18.31l9.48-19.06,18.34-5.58s.16.46.27.95c.12.56.15,1.12.09,1.49-.06.36-.13.46-.31.59-4.82,2.9-9.68,5.79-14.51,8.68-.74.44-.98,1.4-.54,2.14.45.74,1.41.98,2.14.53,4.88-2.92,9.8-5.82,14.64-8.74.98-.66,1.51-1.72,1.67-2.68.16-.96.04-1.86-.12-2.66-.34-1.61-1.02-2.91-1.02-2.91-.34-.68-1.12-1.02-1.84-.8l-1.67.51,8.25-23.4c.22-.52.51-.75,1.02-.95.51-.2,1.24-.29,2.02-.27.76.05,1.08.11,1.56.19h0Z" stroke-width="0"></path><path d="m48.43,0c-17.24,0-31.25,14.02-31.25,31.26s14,31.25,31.25,31.25,31.25-14,31.25-31.25S65.68,0,48.43,0Zm0,3.12c15.55,0,28.12,12.58,28.12,28.13s-12.57,28.12-28.12,28.12-28.12-12.57-28.12-28.12S32.88,3.12,48.43,3.12Z" stroke-width="0"></path><path d="m36.51,15.39c-4.39,1.02-7.69,5.13-7.69,10.32,0,2.84,1.28,5.77,3.05,8.67,1.77,2.91,4.08,5.79,6.38,8.38,4.59,5.16,9.17,9.11,9.17,9.11.59.51,1.46.51,2.05,0,0,0,4.58-3.95,9.17-9.11,2.3-2.58,4.6-5.47,6.37-8.38s3.05-5.83,3.05-8.67c0-5.19-3.32-9.3-7.7-10.32-3.93-.91-8.48.69-11.92,5.29-3.45-4.61-8-6.2-11.93-5.29h0Zm.71,3.05c2.95-.68,6.73.54,9.88,5.81.61,1.01,2.07,1.01,2.68,0,3.14-5.27,6.93-6.5,9.88-5.81,2.95.68,5.28,3.38,5.28,7.28,0,1.84-.98,4.39-2.59,7.05-1.62,2.66-3.83,5.42-6.05,7.91-3.92,4.41-7,7.07-7.86,7.82-.85-.75-3.94-3.41-7.87-7.82-2.21-2.49-4.41-5.25-6.03-7.91-1.62-2.66-2.59-5.21-2.59-7.05,0-3.89,2.34-6.59,5.28-7.28h0Z" stroke-width="0"></path><path d="m4.82,35.35c1.02-.04,2.14.04,3.24.47,1.1.44,2.16,1.26,2.75,2.63,3.04,8.59,6.07,17.18,9.1,25.77l14.96,4.55c.41.12.75.42.95.81l10.89,21.91c.51,1.04-.24,2.24-1.39,2.25h-21.87c-.64,0-1.21-.38-1.45-.98l-2.93-7.32-11.43-6.96c-.39-.23-.65-.62-.73-1.07L.02,37.77c-.14-.76.3-1.5,1.04-1.75,0,0,1.73-.59,3.76-.67h0Zm-1.48,3.3l6.51,37.53,11.27,6.86c.29.18.51.44.63.75l2.73,6.83h18.31l-9.48-19.06-18.34-5.58s-.16.46-.27.95c-.12.56-.15,1.12-.09,1.49.06.36.13.46.31.59,4.82,2.9,9.68,5.79,14.51,8.68.74.44.98,1.4.54,2.14-.45.74-1.41.98-2.14.53-4.88-2.92-9.8-5.82-14.64-8.74-.98-.66-1.51-1.72-1.67-2.68-.16-.96-.04-1.86.12-2.66.34-1.61,1.02-2.91,1.02-2.91.34-.68,1.12-1.02,1.84-.8l1.67.51-8.25-23.4c-.22-.52-.51-.75-1.02-.95-.51-.2-1.24-.29-2.02-.27-.76.05-1.08.11-1.56.19h0Z" stroke-width="0"></path></g></svg>