<svg xmlns="http://www.w3.org/2000/svg" id="Layer_2" viewBox="0 0 65.86 65.86"><g id="Layer_1-2"><path d="m64.61,24.65h-23.4V1.25c0-.69-.56-1.25-1.25-1.25h-14.06c-.69,0-1.25.56-1.25,1.25v23.4H1.25c-.69,0-1.25.56-1.25,1.25v14.06c0,.69.56,1.25,1.25,1.25h23.4v23.4c0,.69.56,1.25,1.25,1.25h14.06c.69,0,1.25-.56,1.25-1.25v-23.4h23.4c.69,0,1.25-.56,1.25-1.25v-14.06c0-.69-.56-1.25-1.25-1.25Zm-1.25,14.06h-23.4c-.69,0-1.25.56-1.25,1.25v23.4h-11.56v-23.4c0-.69-.56-1.25-1.25-1.25H2.5v-11.56h23.4c.69,0,1.25-.56,1.25-1.25V2.5h11.56v23.4c0,.69.56,1.25,1.25,1.25h23.4v11.56Z" stroke-width="0"></path></g></svg>